<?xml version="1.0" standalone="no"?>
<!DOCTYPE svg PUBLIC "-//W3C//DTD SVG 20010904//EN"
 "http://www.w3.org/TR/2001/REC-SVG-20010904/DTD/svg10.dtd">
<svg version="1.0" xmlns="http://www.w3.org/2000/svg"
 width="739.000000pt" height="739.000000pt" viewBox="0 0 739.000000 739.000000"
 preserveAspectRatio="xMidYMid meet">

<g transform="translate(0.000000,739.000000) scale(0.100000,-0.100000)"
fill="#000000" stroke="none">
<path d="M3470 7384 c-1136 -82 -2128 -634 -2786 -1549 -494 -686 -739 -1568
-674 -2416 102 -1309 871 -2450 2049 -3038 376 -188 792 -309 1246 -363 144
-17 634 -17 780 0 728 85 1361 347 1925 796 158 126 437 405 562 561 444 558
709 1189 795 1895 22 179 25 638 5 805 -102 874 -460 1625 -1067 2230 -595
596 -1348 960 -2185 1060 -130 15 -535 27 -650 19z m184 -21 l-61 -4 -7 -262
c-4 -144 -8 -262 -9 -263 -1 -1 -48 -4 -105 -6 l-103 -3 -105 220 c-58 121
-108 223 -112 226 -4 3 -133 -24 -287 -61 l-280 -67 -7 -119 c-4 -65 -10 -184
-13 -265 l-7 -145 -72 -28 c-40 -15 -139 -63 -220 -107 -82 -43 -152 -79 -157
-79 -5 0 -94 70 -196 155 -103 85 -191 154 -196 152 -19 -6 -446 -353 -446
-362 -1 -6 42 -115 94 -244 52 -128 95 -237 95 -241 0 -4 -26 -36 -58 -71 -32
-35 -100 -122 -151 -194 -52 -71 -95 -131 -96 -133 -1 -1 -111 23 -245 53
-134 31 -246 52 -250 48 -4 -4 -62 -122 -128 -261 l-121 -253 198 -176 198
-175 -23 -76 c-13 -42 -37 -151 -54 -241 -16 -91 -33 -168 -37 -171 -5 -4
-107 -28 -228 -54 -121 -26 -228 -50 -238 -52 -16 -5 -17 -26 -15 -297 l3
-292 210 -61 c116 -34 228 -67 251 -73 l41 -11 12 -77 c7 -43 33 -154 58 -246
26 -96 42 -172 37 -176 -5 -5 -91 -73 -192 -151 -155 -120 -183 -146 -178
-164 6 -25 225 -488 234 -497 4 -3 115 11 247 32 132 21 249 39 261 39 14 0
34 -20 64 -62 24 -35 95 -122 157 -195 l114 -132 -111 -222 c-91 -181 -109
-224 -98 -234 22 -20 436 -347 442 -348 2 -1 100 65 217 147 l213 149 101 -52
c55 -29 156 -76 225 -105 l125 -53 3 -252 c1 -138 4 -251 5 -251 2 0 126 -29
275 -65 150 -36 276 -65 281 -65 5 0 65 103 134 228 l126 228 215 1 c119 1
233 4 254 8 l38 6 104 -222 c58 -122 110 -224 117 -226 13 -5 544 107 556 117
5 4 14 122 21 262 7 140 15 259 19 264 3 6 38 23 77 38 39 15 137 64 218 107
128 70 150 78 167 68 11 -7 100 -77 197 -156 97 -78 180 -143 183 -143 5 0
381 301 438 350 5 4 -36 118 -91 254 l-100 246 57 62 c32 35 100 121 151 191
51 71 99 131 106 134 8 3 120 -21 249 -52 130 -31 237 -55 239 -54 1 2 56 119
121 259 65 140 120 258 122 262 2 5 -254 240 -380 348 -4 3 4 44 18 90 14 46
37 153 52 238 15 85 32 160 38 166 7 6 121 36 255 66 l243 54 -6 156 c-4 85
-7 216 -7 290 l0 135 -253 69 c-138 38 -253 70 -255 71 -1 1 -9 40 -16 86 -11
70 -47 212 -95 375 -9 31 -9 31 185 183 107 84 194 158 194 163 0 6 -55 127
-121 269 -80 171 -127 259 -137 259 -8 0 -117 -20 -241 -44 -124 -24 -236 -46
-247 -48 -17 -2 -34 14 -79 77 -32 44 -102 131 -157 193 -118 133 -120 85 20
367 61 123 91 194 86 202 -11 14 -437 363 -444 363 -3 0 -101 -70 -219 -155
l-213 -154 -47 26 c-25 15 -51 30 -58 35 -6 5 -87 42 -179 81 l-169 73 4 251
3 251 -238 57 c-132 31 -259 62 -283 68 -38 9 -46 8 -57 -8 -8 -10 -66 -114
-130 -232 l-115 -213 -45 0 -44 0 0 178 c0 99 -3 220 -6 270 l-7 92 79 -5
c306 -21 480 -47 721 -106 825 -201 1560 -692 2075 -1385 376 -507 617 -1117
695 -1764 24 -202 24 -629 0 -830 -106 -866 -481 -1626 -1098 -2225 -891 -864
-2155 -1218 -3369 -943 -676 153 -1282 489 -1781 987 -306 307 -530 621 -714
1004 -247 513 -359 1009 -359 1587 0 346 32 608 110 913 168 651 490 1215 969
1692 540 539 1223 893 1970 1019 184 32 411 53 565 52 67 0 69 0 14 -3z m361
-755 c3 -2 -4 -74 -15 -159 -11 -85 -20 -160 -20 -167 0 -10 -11 -12 -47 -6
-27 3 -49 8 -51 9 -2 1 6 74 18 161 11 88 20 163 20 168 0 8 86 3 95 -6z m197
-28 c35 -10 38 -14 79 -121 24 -64 45 -105 49 -98 5 6 16 49 26 96 14 61 22
82 32 78 8 -3 21 -5 30 -5 46 -1 47 -10 7 -183 l-38 -164 -46 11 -46 12 -32
85 c-44 114 -53 132 -59 127 -3 -3 -14 -43 -25 -89 -11 -46 -21 -85 -23 -87
-2 -2 -23 2 -46 8 -36 10 -41 14 -36 33 3 12 20 86 38 164 18 79 38 143 43
143 6 0 26 -5 47 -10z m-1196 -80 c37 -23 73 -90 81 -149 7 -52 -12 -105 -48
-135 -41 -35 -127 -60 -172 -52 -77 14 -136 98 -137 191 0 78 39 125 130 158
37 13 114 6 146 -13z m1818 -139 c44 -44 47 -105 8 -184 -24 -48 -41 -68 -72
-86 -50 -28 -72 -25 -192 26 l-86 36 24 56 c14 31 45 102 70 158 l46 101 86
-39 c48 -22 100 -53 116 -68z m-2210 22 l16 -33 -50 -25 -50 -25 59 -119 60
-118 -43 -20 -42 -21 -59 114 c-33 63 -64 114 -68 114 -4 0 -25 -9 -47 -20
-22 -11 -42 -20 -44 -20 -7 0 -39 61 -34 65 5 5 283 143 284 141 1 0 9 -16 18
-33z m2490 -152 c3 -4 -22 -49 -55 -101 -32 -52 -59 -105 -59 -117 0 -32 34
-63 70 -63 33 0 43 12 124 142 l42 67 40 -26 41 -26 -53 -86 c-69 -110 -105
-148 -148 -156 -67 -13 -186 64 -205 131 -12 42 -1 78 44 149 18 28 44 69 58
92 l27 42 35 -20 c19 -12 37 -24 39 -28z m-2843 -109 c79 -110 92 -138 86
-185 -9 -69 -107 -147 -183 -147 -54 0 -83 24 -167 138 l-64 88 39 28 c22 16
43 25 47 20 4 -5 36 -48 70 -96 34 -48 70 -89 80 -93 39 -12 91 26 91 68 0 8
-31 58 -69 111 l-70 95 32 26 c18 13 37 25 42 25 6 0 35 -36 66 -78z m1667
-58 c23 -6 23 -9 20 -113 -2 -68 1 -110 8 -116 6 -5 35 -99 65 -207 l54 -197
3 304 2 305 28 -6 c337 -75 650 -223 917 -434 165 -130 368 -356 479 -532 l37
-58 -674 -2 -673 -3 90 -322 89 -323 94 0 c51 0 93 -2 93 -5 0 -3 -67 -121
-148 -263 -564 -978 -714 -1238 -720 -1244 -4 -3 -133 212 -286 478 -153 267
-282 487 -286 489 -3 2 -55 -169 -114 -380 -95 -336 -106 -386 -95 -406 7 -13
168 -292 359 -619 191 -327 362 -621 379 -652 l33 -58 -24 0 c-20 0 -46 40
-183 276 l-160 276 -3 -262 -2 -262 -43 7 c-82 14 -268 65 -364 101 -694 259
-1222 862 -1377 1570 -15 66 -29 129 -31 142 l-5 22 525 0 c289 0 525 3 525 6
0 3 -82 147 -182 320 l-183 314 -343 0 -342 0 5 23 c2 12 16 75 31 141 40 182
120 398 206 554 l35 62 478 -820 c263 -452 481 -817 485 -813 4 4 55 177 114
383 l108 375 -70 120 -70 120 116 5 c65 3 359 3 655 1 295 -2 537 -1 537 2 0
5 -150 539 -176 629 -5 17 -68 18 -1085 20 l-1080 3 62 90 c265 390 633 680
1062 839 96 36 283 87 365 101 l42 7 1 -339 0 -338 70 234 c67 229 69 237 69
347 l0 113 33 4 c45 7 417 -1 445 -9z m1599 -140 c61 -47 90 -121 64 -163 -7
-11 -15 -9 -44 13 -27 21 -33 31 -29 51 6 32 -22 65 -55 65 -30 0 -31 -31 -3
-71 36 -50 61 -116 54 -144 -9 -38 -59 -75 -100 -75 -48 0 -84 21 -133 76 -33
38 -41 54 -41 86 0 22 5 48 10 59 11 19 12 19 46 -7 29 -23 34 -31 29 -55 -11
-51 37 -99 78 -77 25 13 21 40 -18 105 -51 85 -45 141 17 168 38 16 76 6 125
-31z m-3637 -46 c0 -5 -16 -22 -35 -39 -19 -17 -35 -35 -35 -39 0 -4 40 -50
90 -102 l89 -95 -35 -34 -34 -33 -92 98 -91 97 -41 -40 -42 -41 -27 28 -28 27
118 112 118 111 23 -21 c12 -11 22 -24 22 -29z m3938 -278 c50 -66 92 -124 92
-129 0 -5 -12 -17 -27 -26 -29 -19 -32 -17 -79 49 -15 22 -11 24 -157 -92 -38
-30 -70 -52 -71 -50 -1 1 -15 19 -29 39 l-27 36 100 78 c55 43 100 82 100 87
0 6 -14 27 -30 48 l-30 38 27 21 c16 11 30 20 33 20 3 0 47 -54 98 -119z
m-4158 -107 c71 -54 129 -100 129 -103 0 -3 -12 -21 -28 -40 l-29 -34 -136
102 -137 103 27 34 c14 19 31 35 36 35 5 0 67 -44 138 -97z m-230 -80 c14 -9
26 -17 28 -19 2 -1 -8 -20 -22 -43 -14 -22 -26 -44 -26 -49 0 -4 49 -38 109
-76 l109 -68 -20 -34 c-11 -19 -24 -36 -29 -39 -4 -3 -55 24 -112 60 -58 36
-108 65 -113 65 -5 0 -19 -18 -32 -40 -25 -44 -36 -48 -69 -22 l-22 17 82 132
c45 73 84 133 87 133 3 0 17 -8 30 -17z m4614 -142 c71 -126 76 -148 42 -188
-36 -43 -76 -51 -121 -23 l-35 22 0 -27 c0 -22 -69 -152 -75 -143 -1 2 -13 23
-27 48 l-26 45 39 65 c62 103 50 130 -36 81 -30 -17 -58 -31 -62 -31 -5 0 -18
18 -30 40 l-21 39 146 85 c81 47 148 85 148 85 1 1 27 -44 58 -98z m-4789
-268 c-4 -10 -12 -30 -17 -45 -6 -16 -17 -28 -27 -28 -26 0 -53 -35 -49 -62 5
-41 41 -29 87 30 54 68 97 90 141 72 72 -30 89 -103 46 -196 -30 -65 -67 -94
-118 -94 -36 0 -39 2 -32 23 18 59 24 67 48 67 44 0 76 52 56 90 -18 34 -45
23 -99 -39 -60 -69 -93 -85 -138 -66 -38 16 -53 42 -53 92 1 82 70 173 132
173 25 0 29 -3 23 -17z m4966 -80 l18 -41 -152 -61 c-84 -34 -156 -61 -160
-61 -4 0 -16 19 -26 43 l-18 42 151 62 c83 33 155 60 160 59 5 -1 17 -21 27
-43z m-586 -115 c67 -143 126 -319 158 -473 l24 -120 -305 -5 -305 -5 -182
-315 -183 -315 484 -3 484 -2 0 -28 c0 -15 -11 -75 -25 -135 -89 -394 -296
-768 -585 -1058 -307 -309 -670 -507 -1102 -603 l-28 -6 -2 245 -3 246 -153
-265 c-133 -230 -157 -266 -177 -266 -22 0 -17 13 79 177 117 203 634 1099
752 1305 302 525 1008 1738 1011 1738 3 0 28 -51 58 -112z m495 -133 c91 -8
168 -15 173 -15 9 0 21 -31 31 -77 7 -32 6 -33 -135 -138 -79 -58 -146 -102
-150 -97 -4 4 -12 24 -17 44 -9 34 -8 39 15 56 l25 18 -17 62 c-16 58 -20 62
-47 62 -20 0 -31 6 -37 23 -15 41 -21 77 -14 77 5 0 82 -7 173 -15z m-4922
-76 l143 -33 -7 -41 c-3 -22 -8 -43 -10 -47 -3 -4 -54 -26 -115 -49 -66 -26
-105 -45 -97 -50 7 -3 50 -15 96 -24 45 -10 82 -21 82 -24 0 -21 -23 -81 -30
-81 -13 0 -314 71 -318 75 -2 2 0 23 5 46 l8 43 107 41 c59 23 110 44 113 47
4 3 -37 16 -89 28 -53 13 -96 25 -96 29 0 3 5 23 11 44 9 33 14 38 32 34 12
-3 86 -20 165 -38z m5195 -326 c3 -27 4 -50 2 -52 -2 -2 -59 -11 -127 -20
-140 -19 -135 -14 -119 -118 6 -37 9 -68 8 -69 -1 0 -18 -4 -38 -7 l-36 -5
-18 129 c-10 71 -15 132 -12 135 3 3 76 16 163 28 88 13 162 24 165 25 4 0 9
-20 12 -46z m-5205 -130 l72 -6 0 -50 0 -50 -72 6 c-40 4 -119 10 -176 13 -99
7 -103 8 -98 28 3 12 6 34 6 50 l0 29 98 -7 c53 -4 130 -9 170 -13z m4826
-1238 c139 -70 180 -189 112 -325 -52 -105 -117 -150 -213 -150 -125 0 -239
88 -267 204 -20 83 59 239 144 284 62 32 144 28 224 -13z m-4498 -60 c13 -31
24 -59 24 -64 0 -4 -72 -42 -160 -85 -88 -42 -160 -81 -160 -87 0 -5 22 -54
49 -108 l50 -98 -50 -23 c-27 -13 -51 -22 -53 -19 -11 11 -159 330 -155 333 8
8 414 206 422 206 4 0 19 -25 33 -55z m192 -349 l32 -45 -125 -97 c-136 -107
-156 -134 -135 -184 16 -39 46 -60 86 -60 25 0 54 17 126 73 51 40 109 85 128
99 l36 27 42 -54 42 -55 -68 -53 c-207 -165 -245 -185 -318 -171 -50 9 -110
58 -158 128 -32 48 -41 70 -44 116 -7 91 12 116 197 259 71 55 108 78 116 71
6 -5 25 -29 43 -54z m3930 -25 c11 -6 7 -20 -18 -65 -27 -47 -36 -56 -60 -56
-60 0 -114 -80 -95 -140 11 -33 64 -89 106 -111 50 -25 99 -24 134 3 51 40 72
128 36 148 -16 8 -24 4 -49 -26 -32 -38 -47 -38 -84 3 -16 17 -13 22 49 98 36
44 70 80 74 80 5 0 42 -27 83 -60 69 -55 74 -62 69 -90 -23 -134 -104 -249
-206 -293 -98 -42 -253 32 -311 150 -32 65 -33 118 -2 183 28 61 109 153 151
171 34 15 103 18 123 5z m-3689 -600 c-90 -94 -166 -171 -168 -171 -3 0 -27
21 -53 47 l-47 46 166 174 167 174 49 -50 50 -49 -164 -171z m3362 218 c29
-21 59 -75 59 -108 0 -12 -9 -39 -19 -59 l-19 -38 46 -1 c32 0 72 -12 126 -37
l79 -37 -63 -48 -63 -49 -81 36 c-94 41 -134 49 -159 30 -16 -12 -12 -19 43
-90 33 -42 60 -79 60 -81 0 -3 -24 -23 -54 -45 l-54 -41 -143 184 c-79 101
-145 187 -146 192 -3 12 220 181 269 203 47 21 77 18 119 -11z m-3011 -175
c59 -32 113 -84 130 -124 12 -29 7 -95 -8 -104 -4 -2 -31 10 -59 26 -47 27
-53 34 -53 63 0 65 -101 106 -108 44 -2 -21 11 -42 63 -98 36 -40 70 -83 75
-97 37 -95 -38 -194 -146 -194 -71 0 -205 84 -239 151 -17 32 -19 86 -5 124
l10 26 58 -32 c55 -31 57 -33 54 -69 -3 -28 2 -43 20 -63 30 -34 79 -45 101
-22 30 29 20 59 -44 131 -90 101 -104 141 -71 203 40 74 125 88 222 35z m2517
-192 c-61 -29 -112 -54 -114 -56 -6 -6 30 -76 38 -76 4 0 51 20 105 45 53 25
100 45 103 45 7 0 44 -71 39 -74 -2 -1 -49 -24 -106 -51 -90 -43 -101 -51 -96
-69 11 -37 34 -76 44 -76 6 0 60 25 120 55 l110 55 20 -40 c11 -21 20 -42 20
-45 0 -7 -337 -175 -351 -175 -5 0 -57 96 -115 213 l-104 212 177 87 178 86
21 -41 22 -42 -111 -53z m-294 -217 c40 -147 48 -224 27 -265 -27 -54 -74 -90
-140 -111 -143 -44 -232 -17 -282 86 -17 34 -93 314 -87 319 13 10 124 34 130
28 3 -4 23 -71 44 -150 21 -79 47 -154 57 -168 36 -45 128 -27 148 29 8 25 3
56 -31 184 -23 85 -39 156 -36 159 8 9 100 33 116 31 10 -1 28 -49 54 -142z
m-1627 112 l69 -24 6 -129 c12 -235 10 -387 -3 -381 -7 2 -39 13 -72 23 l-58
18 5 42 4 42 -86 31 c-80 28 -87 29 -98 13 -40 -57 -32 -55 -105 -30 l-68 23
163 197 c89 109 164 198 168 198 3 0 36 -11 75 -23z m1077 -154 c13 -119 30
-413 25 -418 -3 -3 -35 -8 -71 -12 l-65 -6 -7 103 -8 102 -36 -6 c-20 -3 -60
-6 -88 -6 l-52 0 6 -96 c7 -112 6 -114 -79 -114 -54 0 -58 2 -58 23 0 13 -7
120 -15 237 -9 117 -15 214 -13 215 2 1 33 5 69 9 l66 6 7 -37 c3 -21 6 -59 6
-85 l0 -48 53 0 c28 0 69 3 89 6 l38 7 -6 83 -7 82 29 5 c16 2 48 5 70 6 l41
1 6 -57z m-750 -293 c9 -8 0 -89 -12 -109 -7 -10 -21 -10 -70 0 -33 6 -61 15
-61 19 0 4 5 31 11 62 l11 55 57 -10 c31 -5 60 -13 64 -17z"/>
<path d="M2873 6438 c-49 -24 -51 -110 -2 -172 24 -30 72 -35 107 -10 44 30
19 158 -35 183 -29 13 -41 13 -70 -1z"/>
<path d="M4670 6315 c-11 -25 -29 -65 -40 -90 l-20 -46 36 -16 c31 -16 38 -16
61 -3 34 20 63 76 63 122 0 28 -6 42 -26 57 -39 31 -52 26 -74 -24z"/>
<path d="M3523 6053 c-22 -4 -23 -8 -23 -111 0 -107 0 -108 -110 -480 -60
-205 -111 -380 -112 -390 -3 -15 6 -17 71 -17 l74 0 77 270 77 269 98 1 97 0
74 140 74 140 0 88 c0 85 -1 87 -24 87 -13 0 -44 3 -70 6 l-47 7 3 -162 3
-161 -92 0 -93 0 0 160 0 160 -27 -1 c-16 -1 -38 -4 -50 -6z"/>
<path d="M3647 6053 c-4 -3 -7 -66 -7 -140 l0 -133 50 0 50 0 0 140 0 140 -43
0 c-24 0 -47 -3 -50 -7z"/>
<path d="M3889 5670 c-30 -57 -53 -106 -53 -109 8 -41 449 -1588 453 -1593 4
-5 31 34 60 84 l52 92 -221 796 c-121 437 -224 804 -229 815 -6 15 -18 0 -62
-85z"/>
<path d="M3607 5543 c-7 -12 -137 -471 -137 -483 0 -6 80 -10 230 -10 164 0
230 3 230 11 0 6 -30 119 -67 250 l-67 239 -92 0 c-51 0 -95 -3 -97 -7z"/>
<path d="M2812 3448 c-139 -480 -252 -886 -252 -903 1 -16 13 -108 28 -204
l28 -173 298 1058 c165 583 301 1067 304 1077 4 15 -4 17 -75 17 l-79 0 -252
-872z"/>
<path d="M3313 4268 c-66 -71 -97 -126 -127 -233 -44 -152 -44 -151 97 -397
117 -202 126 -214 173 -240 103 -56 262 -74 388 -42 122 31 125 34 273 289
101 175 132 238 133 265 0 50 -46 206 -78 260 -14 25 -48 69 -75 98 l-50 52
-342 0 -342 0 -50 -52z m553 -12 c114 -52 188 -136 225 -257 91 -292 -184
-581 -481 -505 -162 42 -274 164 -303 329 -34 200 102 407 300 457 69 17 195
5 259 -24z"/>
<path d="M2960 4201 c0 -17 18 -21 24 -6 3 9 0 15 -9 15 -8 0 -15 -4 -15 -9z"/>
<path d="M3461 3330 c9 -14 64 -109 124 -212 59 -104 110 -188 114 -188 7 0
240 403 236 408 -2 2 -25 -4 -52 -14 -75 -27 -251 -30 -333 -6 -36 11 -74 23
-85 28 -19 8 -19 7 -4 -16z"/>
<path d="M5968 5234 c-36 -19 -35 -36 1 -76 25 -27 33 -31 48 -22 24 15 28 46
8 83 -18 35 -20 36 -57 15z"/>
<path d="M4602 3131 l-53 -92 118 -414 c65 -227 119 -412 120 -411 1 1 12 91
23 199 l21 198 -81 287 c-44 158 -84 296 -88 306 -7 15 -18 2 -60 -73z"/>
<path d="M6135 4558 c11 -52 20 -54 80 -15 30 21 55 39 55 42 0 3 -32 5 -71 5
l-71 0 7 -32z"/>
<path d="M5860 2803 c-30 -11 -60 -47 -66 -80 -9 -46 11 -87 54 -116 118 -78
222 -50 222 60 0 53 -25 82 -103 118 -51 24 -77 29 -107 18z"/>
<path d="M5167 1959 c-26 -17 -47 -36 -47 -43 0 -7 15 -29 33 -49 l32 -37 43
36 c34 29 42 42 42 69 0 24 -6 38 -19 45 -28 14 -32 13 -84 -21z"/>
<path d="M2825 1435 c-31 -42 -53 -80 -50 -84 5 -9 96 -43 100 -38 4 5 13 197
10 197 -3 0 -29 -34 -60 -75z"/>
</g>
</svg>
